<?xml version="1.0" encoding="UTF-8"?>
<svg xmlns="http://www.w3.org/2000/svg" xmlns:xlink="http://www.w3.org/1999/xlink" width="19pt" height="19pt" viewBox="0 0 19 19" version="1.1">
<g id="surface1">
<path style=" stroke:none;fill-rule:nonzero;fill:rgb(0%,0%,0%);fill-opacity:1;" d="M 19 9.5 C 19 14.746094 14.746094 19 9.5 19 C 4.253906 19 0 14.746094 0 9.5 C 0 4.253906 4.253906 0 9.5 0 C 14.746094 0 19 4.253906 19 9.5 Z M 19 9.5 "/>
<path style=" stroke:none;fill-rule:nonzero;fill:rgb(100%,100%,100%);fill-opacity:1;" d="M 12.109375 5.148438 C 12.695312 5.488281 13.445312 5.285156 13.785156 4.699219 C 14.125 4.109375 13.921875 3.359375 13.335938 3.019531 C 12.75 2.683594 12 2.882812 11.660156 3.472656 C 11.320312 4.058594 11.523438 4.808594 12.109375 5.148438 Z M 9.597656 13.085938 C 9.054688 13.085938 8.542969 12.964844 8.085938 12.753906 L 7.230469 14.28125 C 7.945312 14.632812 8.746094 14.832031 9.597656 14.832031 C 10.089844 14.832031 10.566406 14.765625 11.019531 14.640625 C 11.101562 14.148438 11.394531 13.691406 11.859375 13.421875 C 12.328125 13.152344 12.867188 13.125 13.332031 13.304688 C 14.242188 12.410156 14.832031 11.195312 14.917969 9.84375 L 13.167969 9.816406 C 13.007812 11.648438 11.46875 13.085938 9.597656 13.085938 Z M 9.597656 5.914062 C 11.46875 5.914062 13.007812 7.351562 13.167969 9.183594 L 14.917969 9.15625 C 14.832031 7.804688 14.242188 6.589844 13.332031 5.695312 C 12.867188 5.871094 12.328125 5.847656 11.859375 5.578125 C 11.394531 5.308594 11.101562 4.851562 11.019531 4.359375 C 10.566406 4.234375 10.089844 4.167969 9.597656 4.167969 C 8.746094 4.167969 7.945312 4.367188 7.230469 4.71875 L 8.085938 6.246094 C 8.542969 6.035156 9.054688 5.914062 9.597656 5.914062 Z M 6.007812 9.5 C 6.007812 8.285156 6.613281 7.214844 7.535156 6.566406 L 6.636719 5.0625 C 5.5625 5.78125 4.761719 6.878906 4.429688 8.164062 C 4.820312 8.480469 5.066406 8.960938 5.066406 9.5 C 5.066406 10.039062 4.820312 10.519531 4.429688 10.835938 C 4.761719 12.121094 5.5625 13.21875 6.636719 13.9375 L 7.535156 12.433594 C 6.613281 11.785156 6.007812 10.714844 6.007812 9.5 Z M 12.109375 13.851562 C 11.523438 14.191406 11.320312 14.941406 11.660156 15.527344 C 12 16.117188 12.75 16.316406 13.335938 15.980469 C 13.921875 15.640625 14.125 14.890625 13.785156 14.300781 C 13.445312 13.714844 12.695312 13.511719 12.109375 13.851562 Z M 3.34375 8.273438 C 2.664062 8.273438 2.113281 8.820312 2.113281 9.5 C 2.113281 10.179688 2.664062 10.726562 3.34375 10.726562 C 4.019531 10.726562 4.570312 10.179688 4.570312 9.5 C 4.570312 8.820312 4.019531 8.273438 3.34375 8.273438 "/>
</g>
</svg>
