<?xml version="1.0" encoding="UTF-8"?>
<svg xmlns="http://www.w3.org/2000/svg" xmlns:xlink="http://www.w3.org/1999/xlink" width="36pt" height="36pt" viewBox="0 0 36 36" version="1.1">
<g id="surface1">
<path style=" stroke:none;fill-rule:nonzero;fill:rgb(0%,82.745098%,19.607843%);fill-opacity:1;" d="M 6.300781 0 L 29.699219 0 C 33.179688 0 36 2.820312 36 6.300781 L 36 29.699219 C 36 33.179688 33.179688 36 29.699219 36 L 6.300781 36 C 2.820312 36 0 33.179688 0 29.699219 L 0 6.300781 C 0 2.820312 2.820312 0 6.300781 0 Z M 6.300781 0 "/>
<path style=" stroke:none;fill-rule:nonzero;fill:rgb(100%,100%,100%);fill-opacity:1;" d="M 14.007812 6.351562 C 8.261719 6.351562 3.605469 10.230469 3.605469 15.019531 C 3.675781 17.703125 5.0625 20.183594 7.3125 21.652344 L 6.933594 24.394531 C 6.925781 24.476562 6.957031 24.558594 7.023438 24.605469 C 7.089844 24.65625 7.175781 24.664062 7.25 24.632812 L 10.558594 23.199219 C 11.792969 23.671875 13.128906 23.839844 14.445312 23.679688 C 14.246094 23.042969 14.144531 22.378906 14.140625 21.707031 C 14.140625 17.273438 18.441406 13.667969 23.703125 13.667969 C 23.894531 13.667969 24.085938 13.667969 24.265625 13.667969 C 23.519531 9.5625 19.210938 6.351562 14.007812 6.351562 Z M 10.308594 13.664062 C 9.566406 13.664062 8.960938 13.058594 8.960938 12.3125 C 8.960938 11.566406 9.566406 10.964844 10.308594 10.964844 C 11.058594 10.964844 11.660156 11.566406 11.660156 12.3125 C 11.65625 13.058594 11.054688 13.660156 10.308594 13.660156 Z M 17.414062 13.664062 C 16.667969 13.664062 16.066406 13.058594 16.066406 12.3125 C 16.066406 11.566406 16.667969 10.964844 17.414062 10.964844 C 18.160156 10.964844 18.765625 11.566406 18.765625 12.3125 C 18.757812 13.046875 18.167969 13.644531 17.4375 13.660156 Z M 17.414062 13.664062 "/>
<path style=" stroke:none;fill-rule:nonzero;fill:rgb(100%,100%,100%);fill-opacity:1;" d="M 32.394531 21.707031 C 32.394531 17.769531 28.507812 14.570312 23.714844 14.570312 C 18.921875 14.570312 15.035156 17.761719 15.035156 21.707031 C 15.035156 25.648438 18.921875 28.847656 23.714844 28.847656 C 24.777344 28.84375 25.832031 28.679688 26.839844 28.355469 L 29.144531 29.621094 C 29.214844 29.660156 29.304688 29.65625 29.375 29.609375 C 29.441406 29.566406 29.484375 29.484375 29.476562 29.402344 L 29.25 27.195312 C 31.148438 26.007812 32.328125 23.949219 32.394531 21.707031 Z M 20.8125 20.292969 C 20.253906 20.292969 19.800781 19.84375 19.800781 19.285156 C 19.800781 18.722656 20.253906 18.269531 20.8125 18.269531 C 21.371094 18.269531 21.824219 18.722656 21.824219 19.285156 C 21.824219 19.84375 21.371094 20.292969 20.8125 20.292969 Z M 26.667969 20.292969 C 26.109375 20.292969 25.65625 19.84375 25.65625 19.285156 C 25.65625 18.722656 26.109375 18.269531 26.667969 18.269531 C 27.230469 18.269531 27.679688 18.722656 27.679688 19.285156 C 27.679688 19.832031 27.238281 20.285156 26.683594 20.292969 Z M 26.667969 20.292969 "/>
</g>
</svg>
