<?xml version="1.0" encoding="UTF-8"?>
<svg xmlns="http://www.w3.org/2000/svg" xmlns:xlink="http://www.w3.org/1999/xlink" width="19pt" height="19pt" viewBox="0 0 19 19" version="1.1">
<g id="surface1">
<path style=" stroke:none;fill-rule:nonzero;fill:rgb(0%,0%,0%);fill-opacity:1;" d="M 5.171875 9.457031 C 5.171875 10.355469 4.441406 11.085938 3.542969 11.085938 C 2.644531 11.085938 1.914062 10.355469 1.914062 9.457031 C 1.914062 8.558594 2.644531 7.828125 3.542969 7.828125 C 4.441406 7.828125 5.171875 8.558594 5.171875 9.457031 Z M 10.808594 5.558594 C 12.738281 5.558594 14.332031 7.011719 14.550781 8.886719 L 17.082031 8.808594 C 16.96875 7.425781 16.410156 6.171875 15.550781 5.1875 C 15.179688 5.449219 14.726562 5.601562 14.242188 5.601562 C 12.988281 5.601562 11.976562 4.585938 11.976562 3.335938 C 11.976562 3.269531 11.976562 3.207031 11.984375 3.140625 C 11.601562 3.070312 11.210938 3.03125 10.808594 3.03125 C 9.800781 3.03125 8.847656 3.269531 8.007812 3.6875 L 9.257812 5.890625 C 9.730469 5.675781 10.253906 5.558594 10.808594 5.558594 Z M 14.242188 4.964844 C 15.140625 4.964844 15.871094 4.238281 15.871094 3.335938 C 15.871094 2.4375 15.140625 1.707031 14.242188 1.707031 C 13.339844 1.707031 12.609375 2.4375 12.609375 3.335938 C 12.609375 4.238281 13.339844 4.964844 14.242188 4.964844 Z M 14.324219 14.035156 C 13.425781 14.035156 12.695312 14.761719 12.695312 15.664062 C 12.695312 16.5625 13.425781 17.292969 14.324219 17.292969 C 15.226562 17.292969 15.953125 16.5625 15.953125 15.664062 C 15.953125 14.761719 15.226562 14.035156 14.324219 14.035156 Z M 7.039062 9.324219 C 7.039062 8.121094 7.605469 7.050781 8.484375 6.359375 L 7.140625 4.210938 C 6.015625 5.019531 5.167969 6.1875 4.765625 7.550781 C 5.394531 7.953125 5.808594 8.65625 5.808594 9.457031 C 5.808594 10.226562 5.421875 10.910156 4.835938 11.316406 C 5.265625 12.609375 6.101562 13.714844 7.195312 14.480469 L 8.445312 12.257812 C 7.585938 11.566406 7.039062 10.511719 7.039062 9.324219 Z M 14.324219 13.398438 C 14.703125 13.398438 15.0625 13.492188 15.375 13.65625 C 16.351562 12.625 16.984375 11.269531 17.085938 9.761719 L 14.554688 9.714844 C 14.359375 11.613281 12.757812 13.09375 10.808594 13.09375 C 10.265625 13.09375 9.753906 12.980469 9.289062 12.773438 L 8.03125 14.976562 C 8.867188 15.386719 9.8125 15.621094 10.808594 15.621094 C 11.238281 15.621094 11.660156 15.574219 12.066406 15.492188 C 12.152344 14.320312 13.132812 13.398438 14.324219 13.398438 Z M 14.324219 13.398438 "/>
</g>
</svg>
